<?xml version="1.0" encoding="UTF-8" standalone="no"?>
<!-- Created with Inkscape (http://www.inkscape.org/) -->

<svg
   xmlns:dc="http://purl.org/dc/elements/1.1/"
   xmlns:cc="http://creativecommons.org/ns#"
   xmlns:rdf="http://www.w3.org/1999/02/22-rdf-syntax-ns#"
   xmlns:svg="http://www.w3.org/2000/svg"
   xmlns="http://www.w3.org/2000/svg"
   xmlns:xlink="http://www.w3.org/1999/xlink"
   xmlns:sodipodi="http://sodipodi.sourceforge.net/DTD/sodipodi-0.dtd"
   xmlns:inkscape="http://www.inkscape.org/namespaces/inkscape"
   width="744.09448819"
   height="1052.3622047"
   id="svg2"
   version="1.1"
   inkscape:version="0.48.0 r9654"
   sodipodi:docname="New document 1">
  <defs
     id="defs4">
    <linearGradient
       id="linearGradient4004">
      <stop
         style="stop-color:#d05555;stop-opacity:1;"
         offset="0"
         id="stop4006" />
      <stop
         id="stop4042"
         offset="0.57168144"
         style="stop-color:#e7aaaa;stop-opacity:1;" />
      <stop
         style="stop-color:#fce8e8;stop-opacity:1;"
         offset="1"
         id="stop4008" />
    </linearGradient>
    <inkscape:path-effect
       effect="bend_path"
       id="path-effect4000"
       is_visible="true"
       bendpath="m 287.57858,384.67978 126.2845,0"
       prop_scale="1"
       scale_y_rel="false"
       vertical="false" />
    <linearGradient
       inkscape:collect="always"
       xlink:href="#linearGradient4004"
       id="linearGradient4012"
       x1="3.5718856"
       y1="79.023369"
       x2="689.3739"
       y2="777.32703"
       gradientUnits="userSpaceOnUse" />
  </defs>
  <sodipodi:namedview
     id="base"
     pagecolor="#ffffff"
     bordercolor="#666666"
     borderopacity="1.0"
     inkscape:pageopacity="0.0"
     inkscape:pageshadow="2"
     inkscape:zoom="0.55992835"
     inkscape:cx="352.72083"
     inkscape:cy="531.11296"
     inkscape:document-units="px"
     inkscape:current-layer="layer1"
     showgrid="true"
     inkscape:snap-global="false"
     inkscape:window-width="1280"
     inkscape:window-height="751"
     inkscape:window-x="-4"
     inkscape:window-y="-4"
     inkscape:window-maximized="1">
    <inkscape:grid
       type="xygrid"
       id="grid2985" />
  </sodipodi:namedview>
  <metadata
     id="metadata7">
    <rdf:RDF>
      <cc:Work
         rdf:about="">
        <dc:format>image/svg+xml</dc:format>
        <dc:type
           rdf:resource="http://purl.org/dc/dcmitype/StillImage" />
        <dc:title></dc:title>
      </cc:Work>
    </rdf:RDF>
  </metadata>
  <g
     inkscape:label="Layer 1"
     inkscape:groupmode="layer"
     id="layer1">
    <rect
       style="fill:url(#linearGradient4012);fill-opacity:1;stroke:#000000;stroke-width:3;stroke-miterlimit:4;stroke-opacity:1;stroke-dasharray:none"
       id="rect4002"
       width="771.52728"
       height="771.52728"
       x="-3.5718856"
       y="70.093651"
       ry="0" />
    <g
       id="g4014"
       transform="translate(30.499581,12.35363)">
      <g
         style="fill:#ba591a;fill-opacity:1"
         transform="translate(-19.121286,0)"
         id="g3797">
        <path
           sodipodi:type="arc"
           style="fill:#ba591a;fill-opacity:1;stroke:#000000;stroke-width:3;stroke-miterlimit:4;stroke-opacity:1;stroke-dasharray:none"
           id="path3757"
           sodipodi:cx="108.72459"
           sodipodi:cy="164.83026"
           sodipodi:rx="39.325916"
           sodipodi:ry="50.121265"
           d="m 148.0505,164.83026 c 0,27.68121 -17.60681,50.12127 -39.32591,50.12127 -21.719107,0 -39.32592,-22.44006 -39.32592,-50.12127 0,-27.68121 17.606813,-50.12126 39.32592,-50.12126 21.7191,0 39.32591,22.44005 39.32591,50.12126 z"
           transform="matrix(0.8424291,-0.53880721,0.53880721,0.8424291,31.647012,81.264436)" />
        <path
           sodipodi:type="arc"
           style="fill:#ba591a;fill-opacity:1;stroke:#000000;stroke-width:3;stroke-miterlimit:4;stroke-opacity:1;stroke-dasharray:none"
           id="path3757-1"
           sodipodi:cx="108.72459"
           sodipodi:cy="164.83026"
           sodipodi:rx="39.325916"
           sodipodi:ry="50.121265"
           d="m 148.0505,164.83026 c 0,27.68121 -17.60681,50.12127 -39.32591,50.12127 -21.719107,0 -39.32592,-22.44006 -39.32592,-50.12127 0,-27.68121 17.606813,-50.12126 39.32592,-50.12126 21.7191,0 39.32591,22.44005 39.32591,50.12126 z"
           transform="matrix(-0.8424291,-0.53880721,-0.53880721,0.8424291,709.97991,81.264436)" />
      </g>
      <g
         style="fill:#ba591a;fill-opacity:1"
         transform="translate(0,6)"
         id="g3825">
        <path
           id="rect3805"
           d="m 168.73885,363.47006 178.89438,0 c 32.89343,0 59.37442,26.48099 59.37442,59.37442 0,32.89343 -26.48099,59.37442 -59.37442,59.37442 l -178.89438,0 c -32.89343,0 -59.37442,-26.48099 -59.37442,-59.37442 0,-32.89343 26.48099,-59.37442 59.37442,-59.37442 z"
           style="fill:#ba591a;fill-opacity:1;stroke:#000000;stroke-width:3;stroke-miterlimit:4;stroke-opacity:1"
           transform="matrix(0.98953187,0.14431451,-0.14431451,0.98953187,0,0)"
           inkscape:connector-curvature="0" />
        <path
           id="rect3805-4"
           d="m -527.28238,464.97864 178.89438,0 c 32.89343,0 59.37442,26.48099 59.37442,59.37442 0,32.89343 -26.48099,59.37442 -59.37442,59.37442 l -178.89438,0 c -32.89343,0 -59.37442,-26.48099 -59.37442,-59.37442 0,-32.89343 26.48099,-59.37442 59.37442,-59.37442 z"
           style="fill:#ba591a;fill-opacity:1;stroke:#000000;stroke-width:3;stroke-miterlimit:4;stroke-opacity:1"
           transform="matrix(-0.98953187,0.14431451,0.14431451,0.98953187,0,0)"
           inkscape:connector-curvature="0" />
      </g>
      <path
         id="path3801"
         d="m 528.27325,570.69171 c 0,105.61447 -79.05804,191.2319 -176.58107,191.2319 -97.52303,0 -176.58107,-85.61743 -176.58107,-191.2319 0,-105.61446 79.05804,-191.2319 176.58107,-191.2319 97.52303,0 176.58107,85.61744 176.58107,191.2319 z"
         style="fill:#ba561a;fill-opacity:1;stroke:#000000;stroke-width:3;stroke-miterlimit:4;stroke-opacity:1"
         inkscape:connector-curvature="0" />
      <path
         transform="translate(-16.879267,-15.216707)"
         d="m 525.71429,293.79074 c 0,90.7325 -70.35525,164.28572 -157.14285,164.28572 -86.7876,0 -157.14285,-73.55322 -157.14285,-164.28572 0,-90.7325 70.35525,-164.28572 157.14285,-164.28572 86.7876,0 157.14285,73.55322 157.14285,164.28572 z"
         sodipodi:ry="164.28572"
         sodipodi:rx="157.14285"
         sodipodi:cy="293.79074"
         sodipodi:cx="368.57144"
         id="path2987"
         style="fill:#ba5a1a;fill-opacity:1;stroke:#000000;stroke-width:3;stroke-miterlimit:4;stroke-opacity:1;stroke-dasharray:none"
         sodipodi:type="arc" />
      <g
         style="fill:#ba561a;fill-opacity:1"
         transform="translate(-3.7832749,0)"
         id="g3862">
        <path
           sodipodi:type="arc"
           style="fill:#ba561a;fill-opacity:1;stroke:#000000;stroke-width:3;stroke-miterlimit:4;stroke-opacity:1;stroke-dasharray:none"
           id="path3838"
           sodipodi:cx="123.37542"
           sodipodi:cy="676.06714"
           sodipodi:rx="61.68771"
           sodipodi:ry="94.073761"
           d="m 185.06313,676.06714 c 0,51.9555 -27.61853,94.07376 -61.68771,94.07376 -34.069182,0 -61.68771,-42.11826 -61.68771,-94.07376 0,-51.9555 27.618528,-94.07376 61.68771,-94.07376 34.06918,0 61.68771,42.11826 61.68771,94.07376 z"
           transform="matrix(0.93158584,-0.36352143,0.36352143,0.93158584,-133.99735,97.270946)" />
        <path
           sodipodi:type="arc"
           style="fill:#ba561a;fill-opacity:1;stroke:#000000;stroke-width:3;stroke-miterlimit:4;stroke-opacity:1;stroke-dasharray:none"
           id="path3838-0"
           sodipodi:cx="123.37542"
           sodipodi:cy="676.06714"
           sodipodi:rx="61.68771"
           sodipodi:ry="94.073761"
           d="m 185.06313,676.06714 c 0,51.9555 -27.61853,94.07376 -61.68771,94.07376 -34.069182,0 -61.68771,-42.11826 -61.68771,-94.07376 0,-51.9555 27.618528,-94.07376 61.68771,-94.07376 34.06918,0 61.68771,42.11826 61.68771,94.07376 z"
           transform="matrix(-0.93158584,-0.36352143,-0.36352143,0.93158584,844.94825,97.270946)"
           inkscape:transform-center-x="-296.10106"
           inkscape:transform-center-y="-111.03788" />
      </g>
      <g
         style="fill:#e1a56b;fill-opacity:1"
         transform="translate(0.65780513,0)"
         id="g3892">
        <path
           sodipodi:type="arc"
           style="fill:#e1a56b;fill-opacity:1;stroke:#000000;stroke-width:3;stroke-miterlimit:4;stroke-opacity:1;stroke-dasharray:none"
           id="path3872"
           sodipodi:cx="84.889473"
           sodipodi:cy="440.64789"
           sodipodi:rx="27.324938"
           sodipodi:ry="41.169575"
           d="m 112.21441,440.64789 c 0,22.73733 -12.233791,41.16957 -27.324937,41.16957 -15.091146,0 -27.324938,-18.43224 -27.324938,-41.16957 0,-22.73733 12.233792,-41.16958 27.324938,-41.16958 15.091146,0 27.324937,18.43225 27.324937,41.16958 z"
           transform="matrix(0.93816679,0.3461836,-0.3461836,0.93816679,167.99537,-1.7763339)" />
        <path
           sodipodi:type="arc"
           style="fill:#e1a56b;fill-opacity:1;stroke:#000000;stroke-width:3;stroke-miterlimit:4;stroke-opacity:1;stroke-dasharray:none"
           id="path3872-9"
           sodipodi:cx="84.889473"
           sodipodi:cy="440.64789"
           sodipodi:rx="27.324938"
           sodipodi:ry="41.169575"
           d="m 112.21441,440.64789 c 0,22.73733 -12.233791,41.16957 -27.324937,41.16957 -15.091146,0 -27.324938,-18.43224 -27.324938,-41.16957 0,-22.73733 12.233792,-41.16958 27.324938,-41.16958 15.091146,0 27.324937,18.43225 27.324937,41.16958 z"
           transform="matrix(-0.93816679,0.3461836,0.3461836,0.93816679,534.07337,-1.7763339)" />
      </g>
      <g
         style="fill:#e1a56b;fill-opacity:1"
         transform="translate(0.15935513,0)"
         id="g3940">
        <path
           sodipodi:type="arc"
           style="fill:#e1a56b;fill-opacity:1;stroke:#000000;stroke-width:3;stroke-miterlimit:4;stroke-opacity:1;stroke-dasharray:none"
           id="path3920"
           sodipodi:cx="216.91597"
           sodipodi:cy="681.7608"
           sodipodi:rx="36.884495"
           sodipodi:ry="82.990112"
           d="m 253.80046,681.7608 c 0,45.83418 -16.51375,82.99012 -36.88449,82.99012 -20.37074,0 -36.88449,-37.15594 -36.88449,-82.99012 0,-45.83417 16.51375,-82.99011 36.88449,-82.99011 20.37074,0 36.88449,37.15594 36.88449,82.99011 z"
           transform="matrix(0.9374036,-0.34824488,0.34824488,0.9374036,-217.84155,116.55229)" />
        <path
           sodipodi:type="arc"
           style="fill:#e1a56b;fill-opacity:1;stroke:#000000;stroke-width:3;stroke-miterlimit:4;stroke-opacity:1;stroke-dasharray:none"
           id="path3920-8"
           sodipodi:cx="216.91597"
           sodipodi:cy="681.7608"
           sodipodi:rx="36.884495"
           sodipodi:ry="82.990112"
           d="m 253.80046,681.7608 c 0,45.83418 -16.51375,82.99012 -36.88449,82.99012 -20.37074,0 -36.88449,-37.15594 -36.88449,-82.99012 0,-45.83417 16.51375,-82.99011 36.88449,-82.99011 20.37074,0 36.88449,37.15594 36.88449,82.99011 z"
           transform="matrix(-0.9374036,-0.34824488,-0.34824488,0.9374036,920.90719,116.55229)" />
      </g>
      <g
         style="fill:#e1a56b;fill-opacity:1"
         transform="translate(1.8588539,0)"
         id="g3966">
        <path
           sodipodi:type="arc"
           style="fill:#e1a56b;fill-opacity:1;stroke:#000000;stroke-width:3;stroke-miterlimit:4;stroke-opacity:1;stroke-dasharray:none"
           id="path3946"
           sodipodi:cx="197.35347"
           sodipodi:cy="156.92453"
           sodipodi:rx="26.90156"
           sodipodi:ry="26.90156"
           d="m 224.25503,156.92453 c 0,14.85732 -12.04424,26.90156 -26.90156,26.90156 -14.85732,0 -26.90156,-12.04424 -26.90156,-26.90156 0,-14.85732 12.04424,-26.90156 26.90156,-26.90156 14.85732,0 26.90156,12.04424 26.90156,26.90156 z"
           transform="translate(-8.1382872,0)" />
        <path
           sodipodi:type="arc"
           style="fill:#e1a56b;fill-opacity:1;stroke:#000000;stroke-width:3;stroke-miterlimit:4;stroke-opacity:1;stroke-dasharray:none"
           id="path3946-8"
           sodipodi:cx="197.35347"
           sodipodi:cy="156.92453"
           sodipodi:rx="26.90156"
           sodipodi:ry="26.90156"
           d="m 224.25503,156.92453 c 0,14.85732 -12.04424,26.90156 -26.90156,26.90156 -14.85732,0 -26.90156,-12.04424 -26.90156,-26.90156 0,-14.85732 12.04424,-26.90156 26.90156,-26.90156 14.85732,0 26.90156,12.04424 26.90156,26.90156 z"
           transform="translate(313.09799,0)" />
      </g>
      <path
         transform="translate(6.3313658,22)"
         d="m 441.88633,343.46368 c 0,51.23258 -43.21595,92.76479 -96.52552,92.76479 -53.30957,0 -96.52552,-41.53221 -96.52552,-92.76479 0,-51.23257 43.21595,-92.76478 96.52552,-92.76478 53.30957,0 96.52552,41.53221 96.52552,92.76478 z"
         sodipodi:ry="92.764786"
         sodipodi:rx="96.52552"
         sodipodi:cy="343.46368"
         sodipodi:cx="345.36081"
         id="path3970"
         style="fill:#e1a56b;fill-opacity:1;stroke:#000000;stroke-width:3;stroke-miterlimit:4;stroke-opacity:1;stroke-dasharray:none"
         sodipodi:type="arc" />
      <g
         transform="translate(5.4205543,38)"
         id="g3992">
        <path
           sodipodi:type="arc"
           style="fill:#000000;fill-opacity:1;stroke:#000000;stroke-width:3;stroke-miterlimit:4;stroke-opacity:1;stroke-dasharray:none"
           id="path3972"
           sodipodi:cx="284.24887"
           sodipodi:cy="205.88348"
           sodipodi:rx="15.356334"
           sodipodi:ry="15.356334"
           d="m 299.6052,205.88348 c 0,8.48107 -6.87526,15.35634 -15.35633,15.35634 -8.48107,0 -15.35633,-6.87527 -15.35633,-15.35634 0,-8.48107 6.87526,-15.35633 15.35633,-15.35633 8.48107,0 15.35633,6.87526 15.35633,15.35633 z"
           transform="translate(24,0)" />
        <path
           sodipodi:type="arc"
           style="fill:#000000;fill-opacity:1;stroke:#000000;stroke-width:3;stroke-miterlimit:4;stroke-opacity:1;stroke-dasharray:none"
           id="path3972-2"
           sodipodi:cx="284.24887"
           sodipodi:cy="205.88348"
           sodipodi:rx="15.356334"
           sodipodi:ry="15.356334"
           d="m 299.6052,205.88348 c 0,8.48107 -6.87526,15.35634 -15.35633,15.35634 -8.48107,0 -15.35633,-6.87527 -15.35633,-15.35634 0,-8.48107 6.87526,-15.35633 15.35633,-15.35633 8.48107,0 15.35633,6.87526 15.35633,15.35633 z"
           transform="translate(100.0455,0)" />
      </g>
      <path
         transform="translate(0.69028304,38)"
         d="m 396.13071,278.90442 c 0,13.15431 -20.20486,23.81798 -45.12882,23.81798 -24.92395,0 -45.12881,-10.66367 -45.12881,-23.81798 0,-13.15431 20.20486,-23.81799 45.12881,-23.81799 24.92396,0 45.12882,10.66368 45.12882,23.81799 z"
         sodipodi:ry="23.817986"
         sodipodi:rx="45.128815"
         sodipodi:cy="278.90442"
         sodipodi:cx="351.00189"
         id="path3996"
         style="fill:#000000;fill-opacity:1;stroke:#000000;stroke-width:3;stroke-miterlimit:4;stroke-opacity:1;stroke-dasharray:none"
         sodipodi:type="arc" />
      <path
         transform="translate(0.97134994,-2)"
         sodipodi:end="3.1452126"
         sodipodi:start="0"
         inkscape:path-effect="#path-effect4000"
         d="m 413.86308,370.3529 c 0,15.88253 -28.26975,28.75786 -63.14225,28.75786 -34.87251,0 -63.14225,-12.87533 -63.14225,-28.75786 0,-0.0347 1.3e-4,-0.0694 4.1e-4,-0.1041 l 63.14184,0.1041 z"
         sodipodi:ry="28.757856"
         sodipodi:rx="63.14225"
         sodipodi:cy="384.67978"
         sodipodi:cx="350.72083"
         id="path3998"
         style="fill:#ba561a;fill-opacity:1;stroke:#000000;stroke-width:3;stroke-miterlimit:4;stroke-opacity:1;stroke-dasharray:none"
         sodipodi:type="arc" />
    </g>
  </g>
</svg>
